<svg width="114" height="114" viewBox="0 0 114 114" fill="none" xmlns="http://www.w3.org/2000/svg">
<g clip-path="url(#clip0_33_5313)">
<path d="M64.125 92.6253H49.875C48.0305 92.6253 46.5352 91.1299 46.5352 89.2854V66.5277C46.5352 65.4904 47.0172 64.5118 47.8397 63.8794C48.6622 63.2473 49.7312 63.0327 50.7345 63.3003C54.8445 64.3949 59.1553 64.3949 63.2653 63.3003C64.2675 63.0334 65.3376 63.2473 66.1601 63.8794C66.9826 64.5116 67.4646 65.4901 67.4646 66.5277V89.2854C67.4648 91.1299 65.9695 92.6253 64.125 92.6253Z" fill="#FDCD79"/>
<path d="M64.125 92.625C65.9695 92.625 67.4648 91.1296 67.4648 89.2851V66.5274C67.4648 65.4901 66.9828 64.5115 66.1603 63.8791C65.3378 63.247 64.2677 63.0331 63.2656 63.3C61.2107 63.8473 59.1052 64.121 57 64.121V92.625H64.125Z" fill="#FCAC1F"/>
<path d="M89.0625 114H24.9375C23.093 114 21.5977 112.505 21.5977 110.66V99.75C21.5977 93.9796 26.2921 89.2852 32.0625 89.2852H81.9375C87.7079 89.2852 92.4023 93.9796 92.4023 99.75V110.66C92.4023 112.505 90.907 114 89.0625 114Z" fill="#464646"/>
<path d="M81.9375 89.2852H57V114H89.0625C90.907 114 92.4023 112.505 92.4023 110.66V99.75C92.4023 93.9796 87.7079 89.2852 81.9375 89.2852Z" fill="#464646"/>
<path d="M92.4023 100.641V96.4102C92.4023 90.6398 87.7079 85.9453 81.9375 85.9453H32.0625C26.2921 85.9453 21.5977 90.6398 21.5977 96.4102V100.641H92.4023Z" fill="#FDCD79"/>
<path d="M81.9375 85.9453H57V100.641H92.4023V96.4102C92.4023 90.6398 87.7079 85.9453 81.9375 85.9453Z" fill="#FCAC1F"/>
<path d="M34.5162 53.2148C34.5162 55.0593 33.0208 56.5547 31.1763 56.5547H21.1523C9.48894 56.5547 0 47.0657 0 35.4023V17.5898C0 15.7454 1.49536 14.25 3.33984 14.25H17.8125C19.657 14.25 21.1535 15.7454 21.1535 17.5898C21.1535 19.4343 19.6592 20.9297 17.8147 20.9297H6.67969V35.4023C6.67969 43.3826 13.1721 49.875 21.1523 49.875H31.1763C33.0208 49.875 34.5162 51.3704 34.5162 53.2148Z" fill="#FDCD79"/>
<path d="M114 35.4023C114 47.0657 104.511 56.5547 92.8479 56.5547H82.9219C81.0774 56.5547 79.582 55.0593 79.582 53.2148C79.582 51.3704 81.0774 49.875 82.9219 49.875H92.8479C100.828 49.875 107.321 43.3826 107.321 35.4023V20.9297H96.1877C94.3432 20.9297 92.8468 19.4343 92.8468 17.5898C92.8468 15.7454 94.341 14.25 96.1855 14.25H110.66C112.505 14.25 114 15.7454 114 17.5898V35.4023Z" fill="#FCAC1F"/>
<path d="M96.1875 0H17.8125C15.9689 0 14.4727 1.49625 14.4727 3.33984V17.5631C14.4727 17.6388 14.4749 17.7145 14.4816 17.7902C14.4838 17.8348 14.4882 17.8771 14.4927 17.9194C14.4949 17.9528 14.4971 17.9839 14.5016 18.0151C14.7131 19.6583 16.1159 20.9297 17.8147 20.9297H96.1853C97.8953 20.9297 99.3047 19.645 99.5006 17.9884C99.5051 17.9639 99.5073 17.9394 99.5073 17.9149C99.5118 17.886 99.514 17.8548 99.5162 17.8259C99.5184 17.7991 99.5207 17.7746 99.5207 17.7479C99.5251 17.7301 99.5251 17.7123 99.5251 17.6923C99.5273 17.6477 99.5273 17.6054 99.5273 17.5631V3.33984C99.5273 1.49625 98.0311 0 96.1875 0Z" fill="#FDCD79"/>
<path d="M96.1853 20.9297C97.8953 20.9297 99.3047 19.645 99.5006 17.9884C99.5051 17.9639 99.5073 17.9394 99.5073 17.9149C99.5118 17.886 99.514 17.8548 99.5162 17.8259C99.5184 17.7991 99.5207 17.7746 99.5207 17.7479C99.5251 17.7301 99.5251 17.7123 99.5251 17.6923C99.5273 17.6477 99.5273 17.6054 99.5273 17.5631V3.33984C99.5273 1.49625 98.0311 0 96.1875 0H57V20.9297H96.1853Z" fill="#FCAC1F"/>
<path d="M14.4727 14.25V17.5631C14.4727 17.6388 14.4749 17.7145 14.4816 17.7902C14.4838 17.8348 14.4882 17.8771 14.4927 17.9194C14.4949 17.9528 14.4971 17.9839 14.5016 18.0151C15.7507 32.3297 20.6514 45.5599 28.3063 55.2811C34.1488 62.7022 41.3094 67.7075 49.0155 69.7537C51.6318 70.4507 54.317 70.8047 57 70.8047C59.683 70.8047 62.3682 70.4507 64.9822 69.756C72.6906 67.7075 79.8512 62.7022 85.6937 55.2811C93.3531 45.5532 98.256 32.3119 99.5006 17.9884C99.5051 17.9639 99.5073 17.9394 99.5073 17.9149C99.514 17.8593 99.5184 17.8036 99.5207 17.7479C99.5251 17.7301 99.5251 17.7123 99.5251 17.6923C99.5273 17.6477 99.5273 17.6054 99.5273 17.5631V14.25H14.4727Z" fill="#FDCD79"/>
<path d="M57 70.8047C59.683 70.8047 62.3682 70.4507 64.9822 69.756C72.6906 67.7075 79.8512 62.7022 85.6937 55.2811C93.3531 45.5532 98.256 32.3119 99.5006 17.9884C99.5051 17.9639 99.5073 17.9394 99.5073 17.9149C99.514 17.8593 99.5184 17.8036 99.5207 17.7479C99.5251 17.7301 99.5251 17.7123 99.5251 17.6923C99.5273 17.6477 99.5273 17.6054 99.5273 17.5631V14.25H57V70.8047Z" fill="#FCAC1F"/>
</g>
<defs>
<clipPath id="clip0_33_5313">
<rect width="114" height="114" fill="white"/>
</clipPath>
</defs>
</svg>
